<svg width="40" height="41" viewBox="0 0 40 41" fill="none" xmlns="http://www.w3.org/2000/svg">
<path d="M31.6667 3.83331H15C13.1617 3.83331 11.6667 5.32831 11.6667 7.16665V17.1666H8.33333C6.495 17.1666 5 18.6616 5 20.5V35.5C5 35.942 5.17559 36.3659 5.48816 36.6785C5.80072 36.9911 6.22464 37.1666 6.66667 37.1666H33.3333C33.7754 37.1666 34.1993 36.9911 34.5118 36.6785C34.8244 36.3659 35 35.942 35 35.5V7.16665C35 5.32831 33.505 3.83331 31.6667 3.83331ZM8.33333 20.5H18.3333V33.8333H8.33333V20.5ZM31.6667 33.8333H21.6667V20.5C21.6667 18.6616 20.1717 17.1666 18.3333 17.1666H15V7.16665H31.6667V33.8333Z" fill="#454545"/>
<path d="M18.3333 12.1666C18.3333 11.2462 19.0795 10.5 20 10.5C20.9205 10.5 21.6667 11.2462 21.6667 12.1666C21.6667 13.0871 20.9205 13.8333 20 13.8333C19.0795 13.8333 18.3333 13.0871 18.3333 12.1666ZM25 12.1666C25 11.2462 25.7462 10.5 26.6667 10.5C27.5871 10.5 28.3333 11.2462 28.3333 12.1666C28.3333 13.0871 27.5871 13.8333 26.6667 13.8333C25.7462 13.8333 25 13.0871 25 12.1666ZM25 18.8591C25 17.9529 25.7346 17.2183 26.6408 17.2183H26.6925C27.5987 17.2183 28.3333 17.9529 28.3333 18.8591C28.3333 19.7654 27.5987 20.5 26.6925 20.5H26.6408C25.7346 20.5 25 19.7654 25 18.8591ZM25 25.5C25 24.5795 25.7462 23.8333 26.6667 23.8333C27.5871 23.8333 28.3333 24.5795 28.3333 25.5C28.3333 26.4205 27.5871 27.1666 26.6667 27.1666C25.7462 27.1666 25 26.4205 25 25.5ZM11.6667 25.5016C11.6667 24.5812 12.4129 23.835 13.3333 23.835C14.2538 23.835 15 24.5812 15 25.5016C15 26.4221 14.2538 27.1683 13.3333 27.1683C12.4129 27.1683 11.6667 26.4221 11.6667 25.5016Z" fill="#454545"/>
</svg>
