<svg width="24" height="24" viewBox="0 0 24 24" fill="none" xmlns="http://www.w3.org/2000/svg">
<path d="M9 5V10H5V5H9ZM9 3H5C3.895 3 3 3.895 3 5V10C3 11.105 3.895 12 5 12H9C10.105 12 11 11.105 11 10V5C11 3.895 10.105 3 9 3ZM9 16V19H5V16H9ZM9 14H5C3.895 14 3 14.895 3 16V19C3 20.105 3.895 21 5 21H9C10.105 21 11 20.105 11 19V16C11 14.895 10.105 14 9 14ZM19 14V19H15V14H19ZM19 12H15C13.895 12 13 12.895 13 14V19C13 20.105 13.895 21 15 21H19C20.105 21 21 20.105 21 19V14C21 12.895 20.105 12 19 12ZM19 5V8H15V5H19ZM19 3H15C13.895 3 13 3.895 13 5V8C13 9.105 13.895 10 15 10H19C20.105 10 21 9.105 21 8V5C21 3.895 20.105 3 19 3Z" fill="black"/>
</svg>
