<svg width="20" height="20" viewBox="0 0 20 20" fill="none" xmlns="http://www.w3.org/2000/svg">
<path d="M4.16667 16.6665C4.16667 17.5873 4.9125 18.3332 5.83333 18.3332H14.1667C15.0875 18.3332 15.8333 17.5873 15.8333 16.6665V6.6665H16.6667C17.1267 6.6665 17.5 6.29317 17.5 5.83317C17.5 5.37317 17.1267 4.99984 16.6667 4.99984H14.1667V3.33317C14.1667 2.41234 13.4208 1.6665 12.5 1.6665H7.5C6.57917 1.6665 5.83333 2.41234 5.83333 3.33317V4.99984H3.33333C2.87333 4.99984 2.5 5.37317 2.5 5.83317C2.5 6.29317 2.87333 6.6665 3.33333 6.6665H4.16667V16.6665ZM7.5 3.33317H12.5V4.99984H7.5V3.33317ZM14.1667 6.6665V16.6665H5.83333V6.6665H14.1667ZM7.5 9.1665C7.5 8.7065 7.87333 8.33317 8.33333 8.33317C8.79333 8.33317 9.16667 8.7065 9.16667 9.1665V14.1665C9.16667 14.6265 8.79333 14.9998 8.33333 14.9998C7.87333 14.9998 7.5 14.6265 7.5 14.1665V9.1665ZM10.8333 9.1665C10.8333 8.7065 11.2067 8.33317 11.6667 8.33317C12.1267 8.33317 12.5 8.7065 12.5 9.1665V14.1665C12.5 14.6265 12.1267 14.9998 11.6667 14.9998C11.2067 14.9998 10.8333 14.6265 10.8333 14.1665V9.1665Z" fill="#454545"/>
</svg>
