<svg width="20" height="20" viewBox="0 0 20 20" fill="none" xmlns="http://www.w3.org/2000/svg">
<path d="M15.833 6.16667C16.1563 5.86333 16.3455 5.44333 16.358 5C16.3522 4.54833 16.1622 4.11833 15.833 3.80833L14.5497 2.5C13.8988 1.84917 12.8438 1.84833 12.193 2.49833C12.1922 2.49917 12.1922 2.49917 12.1913 2.5L3.85801 10.8333C3.53051 11.1408 3.34134 11.5675 3.33301 12.0167L3.33301 15H6.32467C6.76467 15 7.18717 14.8267 7.49967 14.5167L15.833 6.16667ZM13.333 3.66667L14.6913 5L13.333 6.30833L12.0497 5L13.333 3.66667ZM4.99967 13.3333V12.0083L10.833 6.175L12.1913 7.5L6.35801 13.3333H4.99967ZM3.33301 17.5C3.33301 17.04 3.70634 16.6667 4.16634 16.6667H15.833C16.293 16.6667 16.6663 17.04 16.6663 17.5C16.6663 17.96 16.293 18.3333 15.833 18.3333L4.16634 18.3333C3.70634 18.3333 3.33301 17.96 3.33301 17.5Z" fill="#056BD8"/>
</svg>
