<svg width="250" height="251" viewBox="0 0 250 251" fill="none" xmlns="http://www.w3.org/2000/svg">
<path d="M125 159.075C164.59 159.075 196.683 126.981 196.683 87.3917C196.683 47.802 164.59 15.7083 125 15.7083C85.4104 15.7083 53.3167 47.802 53.3167 87.3917C53.3167 126.981 85.4104 159.075 125 159.075Z" fill="#ED586D"/>
<path d="M157.042 55.35L92.9583 119.442" stroke="white" stroke-width="10" stroke-linecap="round" stroke-linejoin="round"/>
<path d="M157.042 55.35L92.9583 119.442" stroke="white" stroke-width="15" stroke-linecap="round" stroke-linejoin="round"/>
<path d="M92.9583 55.35L157.042 119.442" stroke="white" stroke-width="15" stroke-linecap="round" stroke-linejoin="round"/>
<path d="M195.5 209.55C195.267 209.883 195.2 210.258 195.442 210.642C195.708 211.067 196.317 211.325 196.933 211.483C198.925 212.008 201.475 211.917 203.517 211.55C205.1 211.267 207.033 210.192 205.508 208.942C205.167 208.658 204.675 208.492 204.192 208.358C201.775 207.708 196.908 207.567 195.508 209.55H195.5Z" fill="#193459" stroke="#193459" stroke-miterlimit="10"/>
<path d="M120.458 149.917C120.442 150.025 120.425 150.125 120.408 150.233C121.425 143.233 122.175 136.15 123.817 129.267C130.408 132.475 133.942 133.992 139.342 136.517C133.708 142.3 130.967 144.658 125.683 149.508" fill="#FCBE02"/>
<path d="M120.458 149.917C120.442 150.025 120.425 150.125 120.408 150.233C121.425 143.233 122.175 136.15 123.817 129.267C130.408 132.475 133.942 133.992 139.342 136.517C133.708 142.3 130.967 144.658 125.683 149.508" stroke="#FCBE02" stroke-linecap="round" stroke-linejoin="round"/>
<path d="M122.2 128.225C122.183 128.4 122.225 128.575 122.333 128.717C122.458 128.883 122.683 129.067 122.592 129.258C122.567 129.308 122.517 129.35 122.467 129.375C122.1 129.592 121.633 129.4 121.208 129.392C120.6 129.375 120.008 129.783 119.808 130.35C119.608 130.917 119.808 131.608 120.283 131.975C120.683 132.283 121.217 132.358 121.717 132.283C122.95 132.092 124.358 130.525 125.475 132.075C125.658 132.325 125.75 132.633 125.975 132.85C126.542 133.392 127.45 133.017 128.233 132.925C129.125 132.817 130.067 133.175 130.658 133.85C131.025 134.267 131.308 134.817 131.833 134.975C132.117 135.067 132.425 135.017 132.717 135.017C133.692 135.017 134.65 135.492 135.233 136.267C136.108 137.442 135.908 138.825 136.425 140.083C137.142 141.842 138.658 142.55 138.983 144.508C139.375 146.833 139.642 149.225 139.767 151.583C139.842 153.067 139.925 154.558 140 156.042C140.042 156.825 140.083 157.625 139.917 158.392C139.7 159.367 139.158 160.267 139.117 161.258C139.067 162.283 139.592 163.317 140.458 163.875C141.908 164.817 144.4 163.975 144.517 162.083C144.617 160.425 142.367 158.483 141.683 157C141.05 155.625 140.967 154.067 140.892 152.55C140.767 149.95 140.642 147.35 140.508 144.758C140.417 143.008 141.158 141.658 141.225 139.917C141.233 139.6 141.183 139.275 141.208 138.958C141.3 138.05 142.092 137.208 141.825 136.342C141.517 135.35 139.967 134.958 140.017 133.917C140.025 133.675 140.133 133.45 140.175 133.208C140.308 132.383 139.592 131.625 138.8 131.342C138.008 131.058 137.142 131.1 136.308 130.992C134.95 130.808 133.683 130.217 132.442 129.633C130.8 128.858 129.258 127.867 127.542 127.258C126.092 126.742 123.65 126.267 122.467 127.625C122.325 127.783 122.233 128 122.217 128.208L122.2 128.225Z" fill="#54C0FF" stroke="#54C0FF" stroke-linecap="round" stroke-linejoin="round"/>
<path d="M123.492 128.267C124.633 127.725 125.825 128 126.983 128.325" stroke="white" stroke-linecap="round" stroke-linejoin="round"/>
<path d="M124.95 134.933L124.6 140.558C124.608 140.483 124.617 140.417 124.633 140.342" stroke="white" stroke-linecap="round" stroke-linejoin="round"/>
<path d="M127.433 135.008C127.367 136.992 127.3 138.983 127.233 140.967" stroke="white" stroke-linecap="round" stroke-linejoin="round"/>
<path d="M123.3 136.442C125.075 136.292 126.858 136.242 128.633 136.3" stroke="white" stroke-linecap="round" stroke-linejoin="round"/>
<path d="M123.217 138.333C124.758 138.367 126.308 138.342 127.85 138.275" stroke="white" stroke-linecap="round" stroke-linejoin="round"/>
<path d="M125.867 160.875C127.317 158.025 128.625 155 129.542 151.925C130.1 150.058 130.042 148.183 128.7 146.675C127.433 145.25 125.583 144.375 124.017 143.333C122.942 142.617 119.192 139.858 118.842 142.675C118.75 143.392 119.217 144.075 119.775 144.533C120.333 144.992 121.008 145.292 121.575 145.742C120.875 145.2 119.425 144.45 118.475 144.592C116.808 144.833 116.817 146.325 117.7 147.442C118.275 148.175 119.092 148.675 119.883 149.158C119.25 148.725 118.55 148.275 117.783 148.292C117.017 148.308 116.225 149.058 116.475 149.783C116.558 150.033 116.75 150.233 116.933 150.417C117.592 151.067 118.333 151.625 119.133 152.083C118.75 151.958 118.35 151.833 117.95 151.875C115.8 152.117 118.442 154.633 119.158 155.05C119.025 154.975 117.308 157.092 117.108 157.308" fill="#A9DFFF"/>
<path d="M125.867 160.875C127.317 158.025 128.625 155 129.542 151.925C130.1 150.058 130.042 148.183 128.7 146.675C127.433 145.25 125.583 144.375 124.017 143.333C122.942 142.617 119.192 139.858 118.842 142.675C118.75 143.392 119.217 144.075 119.775 144.533C120.333 144.992 121.008 145.292 121.575 145.742C120.875 145.2 119.425 144.45 118.475 144.592C116.808 144.833 116.817 146.325 117.7 147.442C118.275 148.175 119.092 148.675 119.883 149.158C119.25 148.725 118.55 148.275 117.783 148.292C117.017 148.308 116.225 149.058 116.475 149.783C116.558 150.033 116.75 150.233 116.933 150.417C117.592 151.067 118.333 151.625 119.133 152.083C118.75 151.958 118.35 151.833 117.95 151.875C115.8 152.117 118.442 154.633 119.158 155.05C119.025 154.975 117.308 157.092 117.108 157.308" stroke="#A9DFFF" stroke-linecap="round" stroke-linejoin="round"/>
<path d="M87.4333 187.383C87.4583 193.092 88.5333 198.8 90.625 204.108C90.425 204.083 89.0583 204.2 86.875 204.417C68.5167 205.333 50.9917 206.942 33.9667 209.267C33.7083 199.567 34.5667 189.833 36.4667 180.308C37.825 173.475 39.725 166.75 42.1583 160.225L59.3583 164.183L91.2167 171.508C88.8417 176.842 87.4083 181.492 87.4333 187.383Z" fill="#ED586D" stroke="#ED586D" stroke-linecap="round" stroke-linejoin="round"/>
<path d="M45.9583 162.8C43.5417 165.117 41.1083 167.442 39.075 170.092C35.9917 174.1 34.8083 178.625 33.3333 183.375C32.2083 187.008 31.0833 190.642 29.9583 194.275C29.3667 196.2 29.2083 198.092 28.8167 200.058C23.6167 200.617 18.6167 200.367 14.1083 197.467C13.85 197.3 13.5917 197.117 13.4667 196.842C13.3667 196.617 13.375 196.358 13.3917 196.108C13.625 191.383 14.15 186.758 14.725 182.058C15.0917 179.108 15.4583 176.15 16.2583 173.283C17.8833 167.508 21.7 163.142 25.375 158.608C29.0583 154.067 32.525 149.342 36.5917 145.125C39.05 142.575 42.35 138.95 45.7833 137.833C49.8833 136.5 54.5917 137.625 58.7167 138.217C63.475 138.9 88.0667 141.1 93.4917 145.733C96.7167 148.492 98.5 152.392 100.267 156.15C102.517 160.917 104.65 165.742 106.842 170.533C109.917 165.333 113.408 160.375 117.267 155.725C120.208 158.008 126.742 161.608 126.742 161.608C126.742 161.608 115.783 185.542 111.05 189.167C105.008 193.792 100.075 189.875 95.5917 185.183C91.1083 180.492 86.9417 175.95 82.3833 171.567" fill="#ED586D"/>
<path d="M45.9583 162.8C43.5417 165.117 41.1083 167.442 39.075 170.092C35.9917 174.1 34.8083 178.625 33.3333 183.375C32.2083 187.008 31.0833 190.642 29.9583 194.275C29.3667 196.2 29.2083 198.092 28.8167 200.058C23.6167 200.617 18.6167 200.367 14.1083 197.467C13.85 197.3 13.5917 197.117 13.4667 196.842C13.3667 196.617 13.375 196.358 13.3917 196.108C13.625 191.383 14.15 186.758 14.725 182.058C15.0917 179.108 15.4583 176.15 16.2583 173.283C17.8833 167.508 21.7 163.142 25.375 158.608C29.0583 154.067 32.525 149.342 36.5917 145.125C39.05 142.575 42.35 138.95 45.7833 137.833C49.8833 136.5 54.5917 137.625 58.7167 138.217C63.475 138.9 88.0667 141.1 93.4917 145.733C96.7167 148.492 98.5 152.392 100.267 156.15C102.517 160.917 104.65 165.742 106.842 170.533C109.917 165.333 113.408 160.375 117.267 155.725C120.208 158.008 126.742 161.608 126.742 161.608C126.742 161.608 115.783 185.542 111.05 189.167C105.008 193.792 100.075 189.875 95.5917 185.183C91.1083 180.492 86.9417 175.95 82.3833 171.567" stroke="#ED586D" stroke-linecap="round" stroke-linejoin="round"/>
<path d="M48.1083 160.767C44.4417 165.058 41.0667 167.933 38.5167 172.217C37.0167 174.742 36.1167 177.567 35.2333 180.367C33.2417 186.667 31.2583 192.967 29.2667 199.267" stroke="#193459" stroke-linecap="round" stroke-linejoin="round"/>
<path d="M117.125 155.383C111.9 160.625 107.742 166.917 104.967 173.767" stroke="#193459" stroke-linecap="round" stroke-linejoin="round"/>
<path d="M68.4583 129.892C71.3917 124 76.9417 118.967 83.5083 118.558C84.5417 118.492 85.6 118.55 86.5583 118.917C87.575 119.308 88.4333 120.033 89.1 120.883C90.6583 122.883 91.1583 125.558 90.85 128.075C90.5417 130.592 89.4917 132.95 88.2083 135.133C86.0417 138.825 82.7833 142.242 78.1167 141.358C77.2333 141.192 77.5917 144.375 77.2 144.775C76.3833 145.608 73.5417 144.642 72.5917 144.358C69.4417 143.4 66.5917 141.425 64.65 138.758C64.5667 138.65 64.4917 138.525 64.4917 138.392C64.4917 138.267 64.575 138.15 64.65 138.05C66.5167 135.558 67.075 132.65 68.4417 129.9L68.4583 129.892Z" fill="#A9DFFF" stroke="#A9DFFF" stroke-linecap="round" stroke-linejoin="round"/>
<path d="M76.7083 128.375C78.5833 128.758 80.2083 129.925 79.4833 131.417C78.3917 133.658 71.975 132.792 72.4333 130.05C72.7083 128.392 74.8333 127.992 76.7083 128.375Z" fill="#F6ABB6"/>
<path d="M90.5167 131.708C90.1167 132.925 89.6 134.117 89 135.225C88.375 134.675 88.0417 133.95 88.2833 133.15C88.6 132.133 89.4917 131.717 90.5167 131.708Z" fill="#F6ABB6"/>
<path d="M92.8833 124.567C92.85 120.025 91.5583 115.35 88.5167 111.975C84.2333 107.217 77.8083 106.658 72.575 110.133C69.425 112.225 66.5333 115.267 64.35 118.342C62.8667 120.433 61.6083 122.683 59.95 124.642C58.2917 126.6 56.1333 128.267 53.6 128.683C58.7917 131.475 64.2833 133.708 69.95 135.325C70.3083 135.425 73.0167 130.625 73.3167 130.117C73.65 129.567 77.325 122.967 77.2667 122.942C79.9083 123.433 84.0083 123.692 85.5 123.825C87.9583 124.042 90.425 124.292 92.875 124.575L92.8833 124.567Z" fill="#193459" stroke="#193459" stroke-miterlimit="10"/>
<path d="M80.075 128.608C80.225 128.25 80.5417 127.95 80.8917 127.975C81.9417 128.067 81.0583 130.05 80.2917 129.642C79.9333 129.45 79.9083 128.992 80.075 128.608Z" fill="#193459" stroke="#193459" stroke-linecap="round" stroke-linejoin="round"/>
<path d="M87.9 130.475C88.0417 130.108 88.3417 129.8 88.7 129.825C89.75 129.892 88.925 131.892 88.15 131.508C87.7833 131.325 87.75 130.875 87.9 130.475Z" fill="#193459" stroke="#193459" stroke-linecap="round" stroke-linejoin="round"/>
<path d="M85.6167 129.275L85.7 132.075C85.7 132.075 85.7 132.15 85.675 132.175C85.65 132.208 85.6 132.208 85.5583 132.208C85.225 132.217 84.8833 132.208 84.55 132.167" stroke="#193459" stroke-linecap="round" stroke-linejoin="round"/>
<path d="M79.7583 109.167C78.4417 109.217 77.1417 109.592 76.0083 110.258C76.5 110.575 77.0833 110.742 77.6667 110.733C77.275 111.483 77.9417 112.542 78.7833 112.517" stroke="white" stroke-linecap="round" stroke-linejoin="round"/>
<path d="M79.6333 125.8C80.25 125.983 80.95 125.867 81.475 125.483" stroke="#193459" stroke-linecap="round" stroke-linejoin="round"/>
<path d="M88.4833 126.242C88.6667 126.783 89.1833 127.2 89.75 127.267" stroke="#193459" stroke-linecap="round" stroke-linejoin="round"/>
<path d="M63.7667 137.442C65.8583 143.275 72.825 145.233 78.4 144.85" stroke="#FCBE02" stroke-width="2" stroke-linecap="round" stroke-linejoin="round"/>
<path d="M79.6583 133.617C79.5333 133.6 79.3917 133.6 79.325 133.7C79.2833 133.767 79.2917 133.85 79.3083 133.925C79.4083 134.358 79.7333 134.7 80.0667 134.992C81.05 135.833 82.3083 136.392 83.6 136.383C84.7917 136.383 86.3167 135.783 86.8583 134.642C86.4083 134.45 80.9 133.775 79.6583 133.617Z" fill="white" stroke="#193459" stroke-linecap="round" stroke-linejoin="round"/>
<path d="M78.8333 130.308L77.8917 131.092" stroke="#ED586D" stroke-width="0.75" stroke-linecap="round" stroke-linejoin="round"/>
<path d="M80.125 130.733C79.825 131 79.5167 131.25 79.1917 131.483" stroke="#ED586D" stroke-width="0.75" stroke-linecap="round" stroke-linejoin="round"/>
<path d="M87.9333 132.617C88.1667 132.992 88.2667 133.175 88.3917 133.483" stroke="#ED586D" stroke-width="0.75" stroke-linecap="round" stroke-linejoin="round"/>
<path d="M89.2417 132.533C89.4167 132.883 89.6083 133.225 89.8083 133.567" stroke="#ED586D" stroke-width="0.75" stroke-linecap="round" stroke-linejoin="round"/>
<path d="M73.4333 137.783C75.8417 142.867 82.625 142.725 86.2167 139.092C87.2417 138.058 88.2 136.717 89 135.225C89.6 134.117 90.1167 132.925 90.5167 131.708C91.1667 129.717 91.5083 127.683 91.3667 125.883" stroke="#193459" stroke-linecap="round" stroke-linejoin="round"/>
<path d="M117.133 144.842C117.708 144.467 118.458 144.458 119.108 144.65C119.758 144.842 120.342 145.225 120.917 145.608C121.475 145.975 122.025 146.342 122.583 146.708" stroke="#193459" stroke-linecap="round" stroke-linejoin="round"/>
<path d="M116.033 149.3C116.258 148.683 116.958 148.342 117.608 148.325C118.258 148.308 118.9 148.55 119.508 148.792C120.108 149.025 120.717 149.267 121.317 149.5" stroke="#193459" stroke-linecap="round" stroke-linejoin="round"/>
<path d="M116.9 152.425C117.233 151.075 119.992 152.542 120.708 152.675" stroke="#193459" stroke-linecap="round" stroke-linejoin="round"/>
<path d="M118.867 141.958C119.9 139.842 123.717 143.125 124.617 144.058" stroke="#193459" stroke-linecap="round" stroke-linejoin="round"/>
<path d="M123.708 192.05C127.817 190.55 133.35 192.05 134.667 196.225C135.433 198.658 134.692 201.567 136.183 203.642C137.217 205.083 139.033 205.675 140.608 206.5C142.183 207.325 143.75 208.808 143.5 210.567C143.158 212.967 139.817 213.592 137.567 212.683C135.317 211.775 133.425 209.967 131.033 209.575C130.442 209.475 129.8 209.475 129.258 209.742C128.108 210.3 127.7 211.85 126.533 212.367C123.867 213.558 121.675 208.317 118.883 209.192C118.383 209.35 117.958 209.692 117.458 209.833C116.267 210.167 115.125 209.283 114 208.767C111.667 207.667 109.05 208.242 106.642 208.683C104.325 209.108 101.933 209.008 99.55 209.317C99.225 209.358 98.8583 209.392 98.6 209.183C98.2667 208.908 98.325 208.35 98.6083 208.025C98.8917 207.7 99.325 207.55 99.7333 207.417C100.942 207.017 102.175 206.617 103.442 206.692C103.625 206.7 103.842 206.708 103.958 206.575C104.092 206.425 104.033 206.2 103.992 206.008C103.408 203.175 107.225 203.292 109.108 202.983C115.367 201.967 117.642 194.25 123.692 192.05H123.708Z" fill="#54C0FF" stroke="#54C0FF" stroke-linecap="round" stroke-linejoin="round"/>
<path d="M130.308 194.258C131.442 194.608 132.417 195.45 132.933 196.517" stroke="white" stroke-linecap="round" stroke-linejoin="round"/>
<path d="M140.175 208.1C141.208 208.117 142.108 209.133 141.992 210.158" stroke="white" stroke-linecap="round" stroke-linejoin="round"/>
<path d="M107.375 204.683C106.7 204.283 105.675 204.808 105.617 205.6" stroke="white" stroke-linecap="round" stroke-linejoin="round"/>
<path d="M93.1833 204.133C71.3 205.025 50.6167 206.883 30.6083 209.725C30.7917 202 32.2417 194.225 35.225 187.075C38.8 178.483 54.125 163.658 54.125 163.658C54.125 163.658 86.525 170.517 91.2167 171.508C88.8667 176.783 88.175 192.142 93.1833 204.133Z" fill="#FCBE02" stroke="#FCBE02" stroke-linecap="round" stroke-linejoin="round"/>
<path d="M82.5417 176.658L79.5083 173.8C86.575 166.317 93.425 160.608 102.292 155.383L103.283 159.317C94.7583 164.342 89.3333 169.458 82.5333 176.658H82.5417Z" fill="#FCBE02"/>
<path d="M53.5417 166.275C53.4583 156.008 51.6333 145.833 48.125 136.025L52.5333 136C56.2 146.242 57.625 155.5 57.7167 166.242L53.55 166.275H53.5417Z" fill="#FCBE02"/>
<path d="M174.025 217.242L142 204.567L145.758 201.242L177.783 213.917L174.025 217.242Z" fill="#193459" stroke="#193459" stroke-miterlimit="10"/>
<path d="M174.683 188.975C175.8 188.525 176.558 187.833 176.667 186.833C177.108 182.775 176.942 178.475 174.975 174.8C174.242 173.425 173.167 172.183 171.758 171.5C164.375 167.95 162.792 181.575 162.175 185.925C162.1 186.483 162.025 187.05 162.15 187.6C162.95 191.333 172.242 189.967 174.692 188.975H174.683Z" fill="#FCBE02" stroke="#FCBE02" stroke-linecap="round" stroke-linejoin="round"/>
<path d="M164.3 155.167C168.447 155.167 171.808 151.805 171.808 147.658C171.808 143.512 168.447 140.15 164.3 140.15C160.153 140.15 156.792 143.512 156.792 147.658C156.792 151.805 160.153 155.167 164.3 155.167Z" fill="#ED586D" stroke="#ED586D" stroke-linecap="round" stroke-linejoin="round"/>
<path d="M168.458 159.225C166.7 159.225 164.942 159.108 163.267 158.75C161.333 158.333 159.6 157.292 158.867 155.383C158.208 153.667 158.292 151.692 158.9 149.967C160.333 145.917 163.358 142.617 166.692 139.908C170.925 136.467 175.858 133.758 181.208 132.675C186.558 131.592 192.35 132.233 197.05 135.017C199.017 136.183 200.842 137.8 201.65 139.942C202.783 142.942 201.7 146.358 200.025 149.092C198.542 151.517 196.45 153.717 193.942 155.175C190.775 157.017 187.375 157.583 183.792 157.95C178.733 158.458 173.583 159.217 168.458 159.225Z" fill="#54C0FF" stroke="#54C0FF" stroke-linecap="round" stroke-linejoin="round"/>
<path d="M200.667 150.083C204.813 150.083 208.175 146.722 208.175 142.575C208.175 138.428 204.813 135.067 200.667 135.067C196.52 135.067 193.158 138.428 193.158 142.575C193.158 146.722 196.52 150.083 200.667 150.083Z" fill="#ED586D" stroke="#ED586D" stroke-linecap="round" stroke-linejoin="round"/>
<path d="M194.158 149.55C191.383 146.958 190.167 142.458 191.9 138.983" stroke="#193459" stroke-linecap="round" stroke-linejoin="round"/>
<path d="M173.65 162.458L186.8 160.567" stroke="#54C0FF" stroke-width="3" stroke-linecap="round" stroke-linejoin="round"/>
<path d="M163.375 146.775C165.475 144.7 168.2 143.267 171.108 142.65C175.775 141.667 180.817 142.95 184.567 145.867C186.325 147.242 188.158 149.208 189.042 151.292C191.375 156.792 181.25 157.683 178 157.908C173.733 158.2 169.492 158.55 165.208 158.325C163.842 158.25 162.433 158.167 161.2 157.558C158.383 156.158 159.658 152.442 160.75 150.308C161.433 148.983 162.317 147.792 163.367 146.758L163.375 146.775Z" fill="#193459" stroke="#193459" stroke-miterlimit="10"/>
<path d="M165.692 148.333C165.783 148.575 165.958 148.75 166.233 148.733C166.417 148.725 166.575 148.583 166.658 148.417C166.742 148.25 166.75 148.058 166.733 147.875C166.692 147.408 166.05 146.733 165.708 147.392C165.592 147.617 165.575 148.025 165.7 148.333H165.692Z" fill="white" stroke="white" stroke-linecap="round" stroke-linejoin="round"/>
<path d="M175.642 146.9C175.75 147.142 175.933 147.317 176.175 147.3C176.358 147.292 176.517 147.15 176.6 146.983C176.683 146.817 176.692 146.625 176.675 146.442C176.642 146.117 176.308 145.6 175.925 145.7C175.5 145.808 175.442 146.467 175.642 146.9Z" fill="white" stroke="white" stroke-linecap="round" stroke-linejoin="round"/>
<path d="M169.475 149.642C169.658 150.258 170.008 150.925 170.692 151.067C171.783 151.292 172.625 150.117 172.517 149.117L169.475 149.642Z" fill="white" stroke="white" stroke-linecap="round" stroke-linejoin="round"/>
<path d="M202.183 192.833C200.667 195.925 197.142 197.658 193.708 197.85C181.317 198.533 171.383 187.742 166.3 177.567C163.017 171.008 166.767 168.058 171.783 166.433C173.325 165.942 174.992 165.567 176.608 165.25C179.85 164.617 183.108 164.067 186.392 163.775C186.458 163.767 186.525 163.767 186.592 163.758C189.342 163.5 193.15 162.875 195.617 164.175C196.975 164.9 197.958 166.217 198.708 167.725C199.65 169.617 200.233 171.808 200.775 173.525C201.783 176.7 202.45 179.992 202.767 183.308C203.058 186.442 203.625 189.9 202.183 192.833Z" fill="#54C0FF" stroke="#54C0FF" stroke-linecap="round" stroke-linejoin="round"/>
<path d="M192.325 180.533C187.758 181.767 183.2 182.992 178.633 184.217C176.7 181.383 174.75 178.525 173.408 175.367C172.608 173.492 170.958 169.05 171.783 166.433C173.325 165.942 174.992 165.567 176.608 165.25C179.85 164.617 183.108 164.067 186.392 163.775C186.458 163.767 186.525 163.767 186.592 163.758C186.458 164.358 186.425 164.992 186.475 165.608C186.708 168.383 187.767 171.033 188.858 173.558C189.117 174.15 191.883 179.575 192.325 180.533Z" fill="#ED586D" stroke="#ED586D" stroke-linecap="round" stroke-linejoin="round"/>
<path d="M197.033 169.217C199.792 168.475 202.825 168.858 202.8 172.375C202.767 177.9 197.85 183.675 193.7 186.892C191.733 188.417 189.633 187.808 187.933 186.125C186.308 184.517 183.15 181.592 183.525 179.025C183.917 176.342 185.883 175.108 187.95 173.675C189.483 172.608 193.542 170.158 197.025 169.217H197.033Z" fill="#FCBE02" stroke="#FCBE02" stroke-linecap="round" stroke-linejoin="round"/>
<path d="M171.992 137.933C171.833 138.283 171.7 138.642 171.592 139.008C171.458 139.45 171.542 139.858 172.075 139.742C173.958 139.317 175.925 139.117 177.858 139.267C178.275 139.3 178.433 139.142 178.633 138.817C178.875 138.425 179.1 138.025 179.333 137.633C179.792 136.85 180.242 136.067 180.758 135.325C181.308 134.525 182.025 133.867 182.7 133.175C183.008 132.858 183.5 132.383 183.508 131.908C183.508 131.4 182.842 131.375 182.475 131.392C181.067 131.467 179.642 131.717 178.342 132.267C177.083 132.792 175.925 133.533 174.858 134.375C173.658 135.317 172.633 136.55 172 137.95L171.992 137.933Z" fill="#0073EC" stroke="#0073EC" stroke-miterlimit="10"/>
<path d="M180.117 122.358C178.417 126.367 177.467 130.692 177.35 135.042" stroke="#193459" stroke-linecap="round" stroke-linejoin="round"/>
<path d="M180.325 120.225C182.075 120.083 182.133 122.533 180.383 122.708C178.633 122.883 178.45 120.375 180.325 120.225Z" fill="#0073EC" stroke="#0073EC" stroke-miterlimit="10"/>
<path d="M203.05 136.45C203.958 136.833 204.75 137.5 205.283 138.333" stroke="white" stroke-linecap="round" stroke-linejoin="round"/>
<path d="M202.733 156.233L157.508 205.658" stroke="#0073EC" stroke-width="5" stroke-linecap="round" stroke-linejoin="round"/>
<path d="M168.625 192.292L158.408 203.608" stroke="white" stroke-linecap="round" stroke-linejoin="round"/>
<path d="M172.842 193.433C172.325 193.433 171.842 193.142 171.525 192.742C171.983 193.3 172.7 194.392 171.758 194.933C171.292 195.208 170.683 195.092 170.2 194.842C170.742 195.025 170.925 195.792 170.608 196.267C170.292 196.742 169.617 196.892 169.083 196.692C167.458 196.108 165.992 193.442 165.75 191.808C165.55 190.467 166.158 189.058 167.308 188.317C168.325 187.667 170.217 187.458 170.8 188.733C171.242 189.692 171.508 190.367 172.417 190.967C172.908 191.283 173.733 191.417 174 191.975C174.325 192.65 173.467 193.417 172.833 193.425L172.842 193.433Z" fill="#193459" stroke="#193459" stroke-miterlimit="10"/>
<path d="M173.758 193.508C172.567 194.242 171.192 193.008 170.608 192.042" stroke="#54C0FF" stroke-width="0.75" stroke-linecap="round" stroke-linejoin="round"/>
<path d="M171.642 195.4C171.183 195.508 170.7 195.358 170.308 195.1C169.917 194.842 169.6 194.492 169.292 194.133" stroke="#54C0FF" stroke-width="0.75" stroke-linecap="round" stroke-linejoin="round"/>
<path d="M179.742 176.875C179.808 177.383 180.167 177.825 180.608 178.083C179.992 177.7 178.808 177.15 178.4 178.15C178.192 178.65 178.4 179.242 178.708 179.683C178.45 179.175 177.667 179.092 177.242 179.475C176.817 179.858 176.758 180.542 177.025 181.05C177.825 182.575 180.667 183.667 182.317 183.683C183.675 183.692 184.983 182.9 185.558 181.658C186.067 180.558 186.008 178.658 184.667 178.258C183.65 177.958 182.95 177.783 182.233 176.958C181.85 176.517 181.608 175.717 181.017 175.525C180.308 175.3 179.658 176.25 179.742 176.875Z" fill="#193459" stroke="#193459" stroke-miterlimit="10"/>
<path d="M179.542 175.975C178.983 177.258 180.392 178.442 181.425 178.892" stroke="#54C0FF" stroke-width="0.75" stroke-linecap="round" stroke-linejoin="round"/>
<path d="M177.958 178.333C177.917 178.8 178.125 179.258 178.433 179.617C178.742 179.975 179.133 180.233 179.525 180.492" stroke="#54C0FF" stroke-width="0.75" stroke-linecap="round" stroke-linejoin="round"/>
<path d="M144.342 201.25L177.092 214.208" stroke="#0073EC" stroke-width="5" stroke-linecap="round" stroke-linejoin="round"/>
<path d="M180.242 120.342C180.667 120.383 181.067 120.625 181.308 120.975" stroke="white" stroke-width="0.5" stroke-linecap="round" stroke-linejoin="round"/>
<path d="M144.825 200.708L151.142 203.208" stroke="white" stroke-linecap="round" stroke-linejoin="round"/>
<path d="M85.1333 142.775C85.7833 142.95 86.425 143.133 87.075 143.308C89.3083 143.925 91.5917 144.567 93.5083 145.867C96.3083 147.775 98.0167 150.875 99.6 153.867" stroke="#193459" stroke-linecap="round" stroke-linejoin="round"/>
<path d="M165.067 204.6C191.908 206.083 217.508 209.05 241.292 213.267" stroke="#193459" stroke-linecap="round" stroke-linejoin="round"/>
<path d="M14.075 212.317C19.5417 211.375 25.05 210.508 30.6083 209.725C31.725 209.567 32.85 209.408 33.9667 209.267C50.9917 206.942 68.5167 205.333 86.875 204.417C88.9667 204.317 91.0667 204.217 93.1833 204.133C95.7083 204.033 99.8917 203.942 102.45 203.858" stroke="#193459" stroke-linecap="round" stroke-linejoin="round"/>
<path d="M21.9083 211.492C21.9583 211.008 21.975 210.508 22 210.025C22.175 206.958 23.4417 203.975 24.6583 201.2C24.9917 200.45 26.0667 198.883 25.9167 198.05C25.75 197.117 24.6167 196.983 23.8167 196.742C21.4167 196.017 18.3167 195.55 15.8833 196.325C15.7333 196.375 15.575 196.433 15.4917 196.558C15.4417 196.642 15.425 196.742 15.4083 196.833C15.15 198.55 14.9083 200.242 14.5667 201.958C13.55 202.075 12.5333 202.192 11.5167 202.308C10.25 202.45 8.975 202.6 7.78334 203.058C6.63334 203.5 5.48334 204.183 4.575 205.017C4.26667 205.3 4.00834 205.833 4.34167 206.083C4.44167 206.158 4.575 206.183 4.70834 206.192C5.23334 206.233 5.76667 206.133 6.24167 205.908C5.55 206.467 2.7 210.342 4.46667 211.008C4.8 211.133 5.16667 210.967 5.45834 210.775C6.25834 210.267 6.93334 209.558 7.41667 208.742C7.08334 209.417 6.825 210.133 6.64167 210.867C6.525 211.35 6.575 212.042 7.06667 212.1C7.26667 212.125 7.46667 212.017 7.63334 211.9C8.45 211.358 9.16667 210.675 9.74167 209.883C9.69167 210.5 9.34167 211.042 9.2 211.642C9.05834 212.242 9.25834 213.025 9.85834 213.167C10.9667 213.433 11.375 211.267 11.95 210.675C12.3333 210.283 12.8667 210.083 13.3833 209.9C14.1417 209.633 14.9 209.375 15.6667 209.125C18.5833 208.175 20.0167 210.192 19.8083 213.075C19.7917 213.308 19.7667 213.558 19.8833 213.758C20.05 214.042 20.4583 214.117 20.7583 213.983C21.0583 213.85 21.2667 213.567 21.4167 213.275C21.7 212.725 21.825 212.125 21.8917 211.508L21.9083 211.492Z" fill="#A9DFFF" stroke="#A9DFFF" stroke-linecap="round" stroke-linejoin="round"/>
<path d="M14.9167 196.158C18.9083 194.958 23.4417 195.708 26.8333 198.133" stroke="#193459" stroke-linecap="round" stroke-linejoin="round"/>
<path d="M143.308 161.358C143.425 162.075 142.908 162.833 142.208 162.992" stroke="white" stroke-linecap="round" stroke-linejoin="round"/>
<path d="M8.925 205.025C7.6 205.083 6.39167 205.892 5.55 206.925C4.70833 207.958 4.175 209.2 3.65833 210.417" stroke="#193459" stroke-linecap="round" stroke-linejoin="round"/>
<path d="M10.6917 206.367C9.425 206.6 8.25 207.317 7.46666 208.333C6.68333 209.35 6.28333 210.667 6.375 211.95" stroke="#193459" stroke-linecap="round" stroke-linejoin="round"/>
<path d="M12.7167 207.417C11.6 207.908 10.45 208.425 9.61667 209.317C8.78334 210.208 8.35 211.592 8.90834 212.683" stroke="#193459" stroke-linecap="round" stroke-linejoin="round"/>
</svg>
