<svg width="300" height="300" viewBox="0 0 300 300" fill="none" xmlns="http://www.w3.org/2000/svg">
<path d="M237.26 233.65C251.31 237.2 265.24 241.58 279 246.8" stroke="#8C9AAC" stroke-width="1.5" stroke-linecap="round" stroke-linejoin="round"/>
<path d="M136.66 222.52C150.24 222.14 163.83 222.52 177.39 223.64" stroke="#8C9AAC" stroke-width="1.5" stroke-linecap="round" stroke-linejoin="round"/>
<path d="M21 244.57C43.93 236.3 67.3 230.34 90.87 226.69" stroke="#8C9AAC" stroke-width="1.5" stroke-linecap="round" stroke-linejoin="round"/>
<path d="M167.19 151.5C203.21 151.5 232.41 122.3 232.41 86.28C232.41 50.26 203.21 21.06 167.19 21.06C131.17 21.06 101.97 50.26 101.97 86.28C101.97 122.3 131.17 151.5 167.19 151.5Z" fill="#D1D6DE" stroke="#D1D6DE" stroke-linecap="round" stroke-linejoin="round"/>
<path d="M167.19 139.82C196.76 139.82 220.73 115.849 220.73 86.28C220.73 56.7107 196.76 32.74 167.19 32.74C137.621 32.74 113.65 56.7107 113.65 86.28C113.65 115.849 137.621 139.82 167.19 139.82Z" fill="#8C9AAC"/>
<path d="M145.45 141.56L101.97 261.88" stroke="#D1D6DE" stroke-width="10" stroke-linecap="round" stroke-linejoin="round"/>
<path d="M101.97 274.38C100.56 274.38 99.1302 274.14 97.7202 273.63C91.2302 271.28 87.8702 264.12 90.2102 257.63L121.39 171.35C123.74 164.86 130.9 161.5 137.39 163.84C143.88 166.19 147.24 173.35 144.9 179.84L113.72 266.12C111.88 271.21 107.08 274.37 101.96 274.37L101.97 274.38Z" fill="#BAC2CD" stroke="#BAC2CD" stroke-linecap="round" stroke-linejoin="round"/>
<path d="M162.73 92.91C162.65 91.83 162.75 90.67 162.75 89.67C162.75 81.24 173.97 80.23 173.97 73.11C173.97 69.94 171.49 67.15 167 67.15C164.02 67.15 161.42 68.26 159.19 70.2C157.37 71.79 154.77 73.94 152.85 70.92C151.08 68.13 154.53 65.48 156.57 64.03C159.83 61.7 163.78 60.5 167.78 60.5C175.83 60.5 182.02 65.61 182.02 72.96C182.02 77.69 178.89 80.85 175.39 83.56C173.94 84.68 172.29 85.73 171.15 87.19C170.08 88.55 169.86 90.11 169.87 91.79C169.88 93.34 170.26 94.99 168.55 95.83C166.75 96.72 163.61 96.43 162.95 94.19C162.83 93.79 162.77 93.36 162.73 92.92V92.91Z" fill="white"/>
<path d="M166.24 101.31C169.25 101.31 171.65 103.71 171.65 106.73C171.65 109.67 169.25 112.07 166.24 112.07C163.23 112.07 160.9 109.67 160.9 106.73C160.9 103.71 163.3 101.31 166.24 101.31Z" fill="white"/>
<path d="M188.31 234.07C188.43 234.92 189.81 235.99 190.68 235.43C191.24 235.07 190.96 234.58 190.8 234.07C190.13 231.81 190.66 229.25 189.31 227.19C188.52 225.99 187.01 225.16 185.63 225.57C182.16 226.6 182.43 231.49 184.18 233.82C184.98 234.89 185.66 234.59 185.9 233.38C185.71 234.11 186.09 234.99 186.81 235.22C187.53 235.45 188.42 234.8 188.31 234.06V234.07Z" fill="#8C9AAC" stroke="#8C9AAC" stroke-miterlimit="10"/>
<path d="M185.26 231.97C185.06 233.16 185.41 234.43 186.21 235.34" stroke="#5E718B" stroke-width="0.75" stroke-linecap="round" stroke-linejoin="round"/>
<path d="M187.79 232.23C187.59 233.42 187.94 234.69 188.74 235.6" stroke="#5E718B" stroke-width="0.75" stroke-linecap="round" stroke-linejoin="round"/>
<path d="M194.33 229.71C194.58 229.75 194.83 229.79 195.08 229.83C195.45 229.89 195.83 229.94 196.18 229.81C196.69 229.62 196.99 229.1 197.24 228.61C198.87 225.49 199.87 222.86 200.33 219.32C200.49 218.08 200.6 216.82 200.4 215.59C200.02 213.32 198.86 210.4 196.6 209.44C190.99 207.05 182.71 217.9 182.19 222.74C181.64 227.95 190.99 229.19 194.33 229.71Z" fill="#E8EBEE" stroke="#E8EBEE" stroke-linecap="round" stroke-linejoin="round"/>
<path d="M205.14 185.84C209.74 185.84 213.47 182.111 213.47 177.51C213.47 172.909 209.74 169.18 205.14 169.18C200.539 169.18 196.81 172.909 196.81 177.51C196.81 182.111 200.539 185.84 205.14 185.84Z" fill="#8C9AAC" stroke="#8C9AAC" stroke-linecap="round" stroke-linejoin="round"/>
<path d="M199.11 189.73C197.75 188.33 196.5 186.84 195.5 185.22C194.35 183.35 193.84 181.18 194.8 179.11C195.66 177.26 197.3 175.81 199.14 174.97C203.47 173 208.43 172.87 213.16 173.44C219.17 174.17 225.12 176.02 230.11 179.46C235.09 182.9 239.04 188.01 240.44 193.9C241.03 196.37 241.14 199.06 240.05 201.36C238.53 204.58 234.97 206.34 231.5 207.11C228.42 207.79 225.06 207.82 221.97 206.94C218.06 205.83 214.99 203.56 211.94 200.98C207.64 197.34 203.07 193.81 199.12 189.73H199.11Z" fill="#D1D6DE" stroke="#D1D6DE" stroke-linecap="round" stroke-linejoin="round"/>
<path d="M237.2 210.94C241.801 210.94 245.53 207.211 245.53 202.61C245.53 198.009 241.801 194.28 237.2 194.28C232.6 194.28 228.87 198.009 228.87 202.61C228.87 207.211 232.6 210.94 237.2 210.94Z" fill="#8C9AAC" stroke="#8C9AAC" stroke-linecap="round" stroke-linejoin="round"/>
<path d="M226.62 202.79C226.56 198.58 229.2 194.15 233.31 192.86" stroke="#5E718B" stroke-linecap="round" stroke-linejoin="round"/>
<path d="M205.78 201.04L217.42 210.08" stroke="#D1D6DE" stroke-width="3" stroke-linecap="round" stroke-linejoin="round"/>
<path d="M203.13 205.49L216.97 210.55" stroke="#D1D6DE" stroke-width="3" stroke-linecap="round" stroke-linejoin="round"/>
<path d="M205.13 176.08C208.4 176.16 211.65 177.23 214.38 179.08C218.76 182.04 221.62 187.06 222.17 192.29C222.43 194.75 222.27 197.73 221.29 200.04C218.7 206.14 210.19 198.74 207.51 196.32C203.99 193.14 200.45 190.03 197.33 186.44C196.34 185.29 195.32 184.1 194.86 182.66C193.8 179.34 197.75 177.49 200.29 176.72C201.87 176.24 203.51 176.04 205.13 176.08Z" fill="#8C9AAC"/>
<path d="M205.67 179.14C205.55 179.4 205.54 179.68 205.77 179.88C205.92 180.02 206.15 180.04 206.35 179.98C206.55 179.92 206.71 179.78 206.84 179.62C207.18 179.23 207.22 178.2 206.43 178.43C206.16 178.51 205.82 178.81 205.67 179.15V179.14Z" fill="white" stroke="white" stroke-linecap="round" stroke-linejoin="round"/>
<path d="M214.47 185.97C214.36 186.24 214.36 186.52 214.56 186.71C214.71 186.85 214.94 186.87 215.14 186.81C215.34 186.75 215.5 186.61 215.63 186.45C215.86 186.18 216.02 185.5 215.65 185.28C215.24 185.03 214.67 185.48 214.47 185.98V185.97Z" fill="white" stroke="white" stroke-linecap="round" stroke-linejoin="round"/>
<path d="M208.03 185.8C209.06 185.61 210.17 186.04 210.81 186.87" stroke="white" stroke-linecap="round" stroke-linejoin="round"/>
<path d="M228.88 219.3C228.46 221.27 227.4 223.33 226.48 225.11C225.16 227.66 223.56 230.46 221.7 233.19C218.19 238.34 213.76 243.2 208.55 245.44C204.97 246.97 200.85 246.78 197.49 244.76C192.59 241.82 191.08 235.89 190.26 230.61C189.56 226.16 189.67 221.58 190.6 217.18C190.82 216.16 191.08 215.16 191.38 214.17C192.16 211.6 193.39 209.66 195.18 208.44C196.69 207.39 198.62 206.88 200.99 206.98C201.6 207 202.22 207.05 202.83 207.11C208.76 207.6 214.92 209.14 220.49 210.97C220.56 211 220.62 211.01 220.69 211.04C222.4 211.61 224.08 212.25 225.7 212.97C228.9 214.38 229.42 216.76 228.88 219.3Z" fill="#D1D6DE" stroke="#D1D6DE" stroke-linecap="round" stroke-linejoin="round"/>
<path d="M218.82 176.16C218.42 176.3 218.03 176.47 217.66 176.66C217.2 176.9 216.94 177.28 217.45 177.61C219.24 178.78 220.91 180.2 222.28 181.86C222.57 182.21 222.82 182.22 223.23 182.13C223.73 182.02 224.22 181.9 224.72 181.78C225.69 181.54 226.67 181.3 227.66 181.14C228.72 180.96 229.8 181.03 230.87 181.03C231.36 181.03 232.12 181.06 232.51 180.7C232.92 180.31 232.42 179.76 232.13 179.48C230.99 178.41 229.69 177.47 228.25 176.85C226.86 176.25 225.38 175.9 223.88 175.69C222.2 175.46 220.43 175.59 218.83 176.16H218.82Z" fill="#8C9AAC" stroke="#8C9AAC" stroke-linecap="round" stroke-linejoin="round"/>
<path d="M219.15 210.54C214.05 213.71 214.21 219.89 212.24 225.37C212.04 225.94 211.72 226.58 211.13 226.68C210.89 226.73 210.64 226.67 210.4 226.61C208.28 226.1 199.52 224.08 198.3 223.13C196.07 221.41 197.52 217.36 198.27 215.26C198.71 214.03 201.16 206.96 202.84 207.1C208.77 207.59 219.08 210.51 219.15 210.53V210.54Z" fill="#8C9AAC" stroke="#8C9AAC" stroke-linecap="round" stroke-linejoin="round"/>
<path d="M243.24 199.51C243.81 200.4 244.06 201.48 243.94 202.53" stroke="white" stroke-linecap="round" stroke-linejoin="round"/>
<path d="M219.65 177.07C220.41 176.77 221.23 176.6 222.05 176.57" stroke="white" stroke-linecap="round" stroke-linejoin="round"/>
<path d="M241.64 182.63C238.9 177.12 232 175.52 228.08 178.12" stroke="#5E718B" stroke-linecap="round" stroke-linejoin="round"/>
<path d="M243.64 183.59C244.34 185.4 241.76 186.25 241.02 184.44C240.25 182.56 242.89 181.65 243.64 183.59Z" fill="#8C9AAC" stroke="#8C9AAC" stroke-linecap="round" stroke-linejoin="round"/>
<path d="M242.98 183.5C243.27 183.74 243.33 184.2 243.12 184.5" stroke="white" stroke-width="0.5" stroke-linecap="round" stroke-linejoin="round"/>
<path d="M222.88 215.04C220.76 219.57 220.13 224.78 220.94 229.71" stroke="#5E718B" stroke-linecap="round" stroke-linejoin="round"/>
<path d="M205.95 175.79C206.87 175.64 207.84 175.78 208.68 176.19" stroke="white" stroke-linecap="round" stroke-linejoin="round"/>
<path d="M218.43 182.74C219.12 183.51 219.62 184.45 219.86 185.44" stroke="white" stroke-linecap="round" stroke-linejoin="round"/>
<path d="M232.09 210.34C232.8 209.08 233.49 207.61 234.81 206.88C235.02 206.76 235.27 206.7 235.5 206.77C235.38 205.97 234.66 205.46 234.48 204.7C234.4 204.39 234.35 203.76 234.59 203.52C234.67 203.44 234.77 203.4 234.88 203.38C235.33 203.26 235.77 203.32 236.16 203.6C236.44 203.81 236.66 204.09 236.86 204.38C237.32 205.06 237.68 205.8 237.92 206.59C238.15 206.05 238.59 205.62 239.23 205.72C239.8 205.81 240.21 206.45 240.05 207C240.14 206.44 240.99 206.32 241.42 206.69C241.85 207.06 241.95 207.68 242 208.25C242.16 210.26 241.15 212.35 239.92 213.9" fill="#75859B"/>
<path d="M232.09 210.34C232.8 209.08 233.49 207.61 234.81 206.88C235.02 206.76 235.27 206.7 235.5 206.77C235.38 205.97 234.66 205.46 234.48 204.7C234.4 204.39 234.35 203.76 234.59 203.52C234.67 203.44 234.77 203.4 234.88 203.38C235.33 203.26 235.77 203.32 236.16 203.6C236.44 203.81 236.66 204.09 236.86 204.38C237.32 205.06 237.68 205.8 237.92 206.59C238.15 206.05 238.59 205.62 239.23 205.72C239.8 205.81 240.21 206.45 240.05 207C240.14 206.44 240.99 206.32 241.42 206.69C241.85 207.06 241.95 207.68 242 208.25C242.16 210.26 241.15 212.35 239.92 213.9" stroke="#75859B" stroke-miterlimit="10"/>
<path d="M238.43 207.8C238.33 206.95 238.34 205.94 237.85 205.28" stroke="#5E718B" stroke-width="0.75" stroke-linecap="round" stroke-linejoin="round"/>
<path d="M235.44 208.88C235.62 208.04 235.66 208.09 235.71 207.56C235.77 206.88 235.63 206.55 235.16 206.06C234.5 205.37 233.9 204.15 234.57 203.27" stroke="#5E718B" stroke-width="0.75" stroke-linecap="round" stroke-linejoin="round"/>
<path d="M223.71 227.71C223.75 229.74 224.15 232.47 226.48 233.02C231.21 234.15 235.27 228.28 237.58 225.1C239.06 223.06 240.55 221 241.48 218.66C241.94 217.49 242.11 216.16 241.48 215.02C240.87 213.93 239.74 213.33 238.68 212.74C237.14 211.89 235.51 211.08 233.85 210.5C232.63 210.07 231.19 209.73 229.96 210.3C227.23 211.55 226.53 214.03 225.64 216.68C224.98 218.64 223.64 223.72 223.72 227.72L223.71 227.71Z" fill="#E8EBEE" stroke="#E8EBEE" stroke-linecap="round" stroke-linejoin="round"/>
<path d="M240.21 206.13C240.59 207.01 240.77 207.97 240.74 208.92" stroke="#5E718B" stroke-width="0.75" stroke-linecap="round" stroke-linejoin="round"/>
<path d="M197.93 262.05C197.65 262.45 197.57 262.9 197.86 263.36C198.18 263.87 198.91 264.18 199.65 264.37C202.04 265 205.1 264.89 207.55 264.45C209.45 264.11 211.77 262.82 209.94 261.32C209.53 260.98 208.94 260.78 208.36 260.62C205.46 259.84 199.62 259.67 197.94 262.05H197.93Z" fill="#8C9AAC" stroke="#8C9AAC" stroke-linecap="round" stroke-linejoin="round"/>
</svg>
