<svg width="20" height="20" viewBox="0 0 20 20" fill="none" xmlns="http://www.w3.org/2000/svg">
<path d="M9.99984 1.66675C5.39734 1.66675 1.6665 5.39758 1.6665 10.0001C1.6665 14.6026 5.39734 18.3334 9.99984 18.3334C14.6023 18.3334 18.3332 14.6026 18.3332 10.0001C18.3332 5.39758 14.6023 1.66675 9.99984 1.66675ZM9.99984 16.6667C6.31817 16.6667 3.33317 13.6817 3.33317 10.0001C3.33317 6.31841 6.31817 3.33341 9.99984 3.33341C13.6815 3.33341 16.6665 6.31841 16.6665 10.0001C16.6665 13.6817 13.6815 16.6667 9.99984 16.6667ZM10.8332 13.3334V9.16675C10.8332 8.70675 10.4598 8.33342 9.99984 8.33342C9.53984 8.33342 9.1665 8.70675 9.1665 9.16675V13.3334C9.1665 13.7934 9.53984 14.1667 9.99984 14.1667C10.4598 14.1667 10.8332 13.7934 10.8332 13.3334ZM10.8332 6.66675C10.8332 6.20675 10.4598 5.83341 9.99984 5.83341C9.53984 5.83341 9.1665 6.20675 9.1665 6.66675C9.1665 7.12675 9.53984 7.50008 9.99984 7.50008C10.4598 7.50008 10.8332 7.12675 10.8332 6.66675Z" fill="#454545"/>
</svg>
