<svg width="17" height="16" viewBox="0 0 17 16" fill="none" xmlns="http://www.w3.org/2000/svg">
<path d="M3.16671 14L9.16671 14C9.90204 14 10.5 13.402 10.5 12.6667L10.5 10.6667C10.5 10.2985 10.2016 10 9.83337 10C9.46518 10 9.16671 10.2985 9.16671 10.6667L9.16671 12.6667L3.16671 12.6667L3.16671 3.33333L9.16671 3.33333L9.16671 5.33333C9.16671 5.70152 9.46518 6 9.83337 6C10.2016 6 10.5 5.70152 10.5 5.33333L10.5 3.33333C10.5 2.598 9.90204 2 9.16671 2L3.16671 2C2.43137 2 1.83338 2.598 1.83337 3.33333L1.83337 12.6667C1.83337 13.402 2.43137 14 3.16671 14Z" fill="black"/>
<path d="M12.0286 9.5286C11.7682 9.78894 11.7682 10.2111 12.0286 10.4714C12.2889 10.7318 12.711 10.7318 12.9714 10.4714L14.5 8.94281C15.0207 8.42211 15.0207 7.57789 14.5 7.05719L12.9714 5.52859C12.711 5.26824 12.2889 5.26824 12.0286 5.52859C11.7682 5.78894 11.7682 6.21105 12.0286 6.4714L12.8905 7.33333L6.50004 7.33333C6.13185 7.33333 5.83337 7.63181 5.83337 8C5.83337 8.36819 6.13185 8.66667 6.50004 8.66667L12.8905 8.66667L12.0286 9.5286Z" fill="black"/>
</svg>
