<svg width="20" height="20" viewBox="0 0 20 20" fill="none" xmlns="http://www.w3.org/2000/svg">
<path d="M5.00846 1.66652C3.40013 1.66652 2.0918 2.97486 2.0918 4.58319C2.0918 5.89986 2.97513 7.00236 4.17513 7.36402V13.3307C4.1743 13.4799 4.19763 14.8149 5.15346 15.7732C5.74346 16.3665 6.53346 16.6665 7.50013 16.6665V17.6242C7.50013 18.4119 8.49209 18.7599 8.98419 18.1448L10.417 16.3538C10.6605 16.0494 10.6605 15.617 10.417 15.3126L8.98419 13.5216C8.4921 12.9065 7.50013 13.2544 7.50013 14.0422V14.9999C5.98096 14.9999 5.8468 13.7215 5.8418 13.3332V7.36402C7.0418 7.00236 7.92513 5.89986 7.92513 4.58319C7.92513 2.97486 6.61596 1.66652 5.00846 1.66652ZM5.00846 5.83319C4.3193 5.83319 3.75846 5.27236 3.75846 4.58319C3.75846 3.89402 4.3193 3.33319 5.00846 3.33319C5.69763 3.33319 6.25846 3.89402 6.25846 4.58319C6.25846 5.27236 5.69763 5.83319 5.00846 5.83319ZM15.8418 12.6357V6.66402C15.8376 5.32569 14.9443 3.33319 12.5001 3.33319V2.37551C12.5001 1.58778 11.5082 1.23981 11.0161 1.85493L9.58326 3.64594C9.33978 3.95029 9.33978 4.38275 9.58326 4.6871L11.0161 6.47812C11.5082 7.09323 12.5001 6.74527 12.5001 5.95754V4.99986C14.0243 4.99986 14.1676 6.28236 14.1751 6.66652V12.6357C12.9751 12.9974 12.0918 14.0999 12.0918 15.4165C12.0918 17.0249 13.4001 18.3332 15.0085 18.3332C16.6168 18.3332 17.9251 17.0249 17.9251 15.4165C17.9251 14.0999 17.0418 12.9974 15.8418 12.6357ZM15.0085 16.6665C14.3193 16.6665 13.7585 16.1057 13.7585 15.4165C13.7585 14.7274 14.3193 14.1665 15.0085 14.1665C15.6976 14.1665 16.2585 14.7274 16.2585 15.4165C16.2585 16.1057 15.6976 16.6665 15.0085 16.6665Z" fill="#454545"/>
</svg>
