<svg width="300" height="300" viewBox="0 0 300 300" fill="none" xmlns="http://www.w3.org/2000/svg">
<path d="M211.73 135.92L225 252.49H59.9497L46.6797 122.37H111.5L126.46 135.92H211.73Z" fill="#BAC2CD" stroke="#BAC2CD" stroke-linecap="round" stroke-linejoin="round"/>
<path d="M225 252.49H59.9502L89.8402 154.56H254.89L225 252.49Z" fill="#D1D6DE" stroke="#D1D6DE" stroke-linecap="round" stroke-linejoin="round"/>
<path d="M11.75 253.17C19.41 246.5 32.93 240.59 50.59 235.9" stroke="#8C9AAC" stroke-width="1.5" stroke-linecap="round" stroke-linejoin="round"/>
<path d="M236.02 232.76C258.5 237.43 276.05 243.89 286.05 251.4" stroke="#8C9AAC" stroke-width="1.5" stroke-linecap="round" stroke-linejoin="round"/>
<path d="M150 185.68C169.706 185.68 185.68 169.706 185.68 150C185.68 130.294 169.706 114.32 150 114.32C130.295 114.32 114.32 130.294 114.32 150C114.32 169.706 130.295 185.68 150 185.68Z" fill="#8C9AAC"/>
<path d="M132.64 150H167.36" stroke="white" stroke-width="8" stroke-linecap="round" stroke-linejoin="round"/>
<path d="M150 132.64V167.36" stroke="white" stroke-width="8" stroke-linecap="round" stroke-linejoin="round"/>
<path d="M184.91 102.63C184.18 100.71 184.65 98.4 186.04 96.9C186.5 96.4 187.14 95.89 187.79 96.08C188.25 96.21 188.55 96.67 188.67 97.13C189.02 98.4 188.34 99.71 187.66 100.84" fill="#8C9AAC"/>
<path d="M184.91 102.63C184.18 100.71 184.65 98.4 186.04 96.9C186.5 96.4 187.14 95.89 187.79 96.08C188.25 96.21 188.55 96.67 188.67 97.13C189.02 98.4 188.34 99.71 187.66 100.84" stroke="#8C9AAC" stroke-miterlimit="10"/>
<path d="M192.27 112.03C192.27 112.34 192.25 112.65 192.24 112.96C192.23 113.42 192.22 113.89 192.43 114.3C192.74 114.9 193.43 115.18 194.06 115.42C198.12 116.93 201.48 117.75 205.88 117.78C207.42 117.79 208.97 117.73 210.45 117.29C213.16 116.48 216.56 114.62 217.39 111.71C218.66 107.25 214.95 104.88 211.75 102.74C207.89 100.15 203.75 97.98 199.41 96.3C198.61 95.99 197.69 95.7 196.92 96.08C196.5 96.28 196.2 96.66 195.92 97.03C192.84 101.26 192.43 106.77 192.26 112.04L192.27 112.03Z" fill="#E8EBEE" stroke="#E8EBEE" stroke-linecap="round" stroke-linejoin="round"/>
<path d="M199.64 84.87C205.301 84.87 209.89 80.2809 209.89 74.62C209.89 68.9591 205.301 64.37 199.64 64.37C193.979 64.37 189.39 68.9591 189.39 74.62C189.39 80.2809 193.979 84.87 199.64 84.87Z" fill="#8C9AAC" stroke="#8C9AAC" stroke-linecap="round" stroke-linejoin="round"/>
<path d="M209.72 88.03C207.43 88.74 205.09 89.3 202.76 89.5C200.07 89.73 197.4 89.08 195.66 86.88C194.11 84.91 193.42 82.3 193.52 79.81C193.76 73.95 196.37 68.43 199.63 63.55C203.77 57.35 209.11 51.84 215.66 48.27C222.21 44.71 230.02 43.21 237.27 44.94C240.31 45.67 243.33 47.04 245.25 49.51C247.94 52.97 247.9 57.86 246.82 62.1C245.86 65.86 244.02 69.57 241.34 72.48C237.95 76.16 233.75 78.27 229.22 80.19C222.83 82.89 216.41 85.96 209.73 88.03H209.72Z" fill="#D1D6DE" stroke="#D1D6DE" stroke-linecap="round" stroke-linejoin="round"/>
<path d="M245.04 63.59C250.701 63.59 255.29 59.0009 255.29 53.34C255.29 47.6791 250.701 43.09 245.04 43.09C239.379 43.09 234.79 47.6791 234.79 53.34C234.79 59.0009 239.379 63.59 245.04 63.59Z" fill="#8C9AAC" stroke="#8C9AAC" stroke-linecap="round" stroke-linejoin="round"/>
<path d="M239.35 65.07C234.69 62.8 231.29 57.43 232.15 52.19" stroke="#5E718B" stroke-linecap="round" stroke-linejoin="round"/>
<path d="M217.79 90.16L234.19 82.4" stroke="#D1D6DE" stroke-width="3" stroke-linecap="round" stroke-linejoin="round"/>
<path d="M198.07 73.84C199.97 70.29 202.95 67.32 206.5 65.35C212.19 62.19 219.29 61.83 225.35 64.13C228.2 65.21 231.38 67.05 233.38 69.41C238.64 75.64 225.79 80.88 221.64 82.48C216.19 84.58 210.8 86.75 205.13 88.18C203.32 88.64 201.44 89.1 199.6 88.8C195.36 88.11 195.52 82.75 196.09 79.53C196.44 77.53 197.13 75.62 198.07 73.85V73.84Z" fill="#8C9AAC"/>
<path d="M201.73 74.94C201.95 75.21 202.25 75.38 202.59 75.24C202.83 75.15 202.98 74.91 203.02 74.66C203.06 74.41 203 74.15 202.9 73.92C202.66 73.33 201.55 72.71 201.37 73.7C201.31 74.04 201.45 74.58 201.73 74.93V74.94Z" fill="white" stroke="white" stroke-linecap="round" stroke-linejoin="round"/>
<path d="M214.13 69.07C214.37 69.34 214.68 69.5 214.99 69.38C215.23 69.29 215.38 69.05 215.42 68.8C215.46 68.55 215.4 68.29 215.3 68.06C215.13 67.65 214.48 67.11 214.02 67.39C213.51 67.71 213.7 68.58 214.13 69.07Z" fill="white" stroke="white" stroke-linecap="round" stroke-linejoin="round"/>
<path d="M207.19 75.12C207.67 75.86 208.4 76.58 209.35 76.48C210.87 76.33 211.49 74.46 210.95 73.2" stroke="white" stroke-linecap="round" stroke-linejoin="round"/>
<path d="M252.67 86.58C253.83 88.77 254.47 91.54 255.03 93.95C255.81 97.4 256.54 101.3 256.96 105.35C257.76 112.98 257.45 121.07 254.33 127.32C252.18 131.6 248.15 134.7 243.39 135.48C236.44 136.61 230.31 132.24 225.34 127.92C221.14 124.29 217.61 119.9 214.99 115.02C214.38 113.89 213.83 112.74 213.33 111.57C212.02 108.54 211.63 105.72 212.34 103.16C212.92 100.97 214.34 98.96 216.65 97.17C217.24 96.71 217.86 96.26 218.48 95.83C224.45 91.58 231.46 88.12 238.15 85.43C238.24 85.4 238.31 85.36 238.39 85.33C240.45 84.51 242.54 83.78 244.64 83.17C248.78 81.95 251.15 83.78 252.66 86.6L252.67 86.58Z" fill="#D1D6DE" stroke="#D1D6DE" stroke-linecap="round" stroke-linejoin="round"/>
<path d="M268.47 104.77L269.95 108.37C270.19 108.95 270.53 109.61 271.15 109.68C271.72 109.74 272.22 109.2 272.33 108.63C272.44 108.06 272.25 107.48 272.07 106.93C272.53 107.49 272.99 108.05 273.45 108.61C273.98 109.25 274.8 109.96 275.53 109.56C275.95 109.33 276.13 108.8 276.08 108.32C276.03 107.84 275.79 107.41 275.56 106.99C275.9 107.61 276.82 107.81 277.39 107.4C277.96 106.99 278.07 106.06 277.61 105.53C278.02 106.1 279.02 105.78 279.29 105.13C279.56 104.48 279.34 103.75 279.09 103.1C278.18 100.79 275.93 99.03 273.73 97.97" fill="#8C9AAC"/>
<path d="M268.47 104.77L269.95 108.37C270.19 108.95 270.53 109.61 271.15 109.68C271.72 109.74 272.22 109.2 272.33 108.63C272.44 108.06 272.25 107.48 272.07 106.93C272.53 107.49 272.99 108.05 273.45 108.61C273.98 109.25 274.8 109.96 275.53 109.56C275.95 109.33 276.13 108.8 276.08 108.32C276.03 107.84 275.79 107.41 275.56 106.99C275.9 107.61 276.82 107.81 277.39 107.4C277.96 106.99 278.07 106.06 277.61 105.53C278.02 106.1 279.02 105.78 279.29 105.13C279.56 104.48 279.34 103.75 279.09 103.1C278.18 100.79 275.93 99.03 273.73 97.97" stroke="#8C9AAC" stroke-miterlimit="10"/>
<path d="M274.96 105.7C275.84 106.9 277.21 108.2 276.22 109.75" stroke="#5E718B" stroke-width="0.75" stroke-linecap="round" stroke-linejoin="round"/>
<path d="M276.9 103.52C277.92 104.61 279.08 105.92 278.15 107.48" stroke="#5E718B" stroke-width="0.75" stroke-linecap="round" stroke-linejoin="round"/>
<path d="M271.5 105.96C272.16 106.79 272.17 106.71 272.51 107.27C272.86 107.86 273.17 108.63 272.82 109.29" stroke="#5E718B" stroke-width="0.75" stroke-linecap="round" stroke-linejoin="round"/>
<path d="M248.24 93C246.91 90.89 245.47 87.81 247.49 85.66C251.59 81.3 259.75 84.59 264.27 86.3C267.17 87.39 270.1 88.51 272.64 90.29C273.91 91.19 274.98 92.44 275.1 94.05C275.21 95.59 274.45 96.97 273.76 98.29C272.75 100.21 271.62 102.14 270.3 103.87C269.34 105.13 268.08 106.46 266.43 106.71C262.77 107.27 260.38 105.2 257.68 103.07C255.68 101.5 250.86 97.17 248.24 93.01V93Z" fill="#E8EBEE" stroke="#E8EBEE" stroke-linecap="round" stroke-linejoin="round"/>
<path d="M205.76 58.84C205.69 59.36 205.66 59.88 205.67 60.4C205.67 61.03 205.95 61.53 206.59 61.16C208.87 59.85 211.36 58.8 213.95 58.22C214.5 58.1 214.65 57.83 214.77 57.32C214.92 56.71 215.07 56.1 215.21 55.49C215.49 54.29 215.77 53.08 216.14 51.9C216.54 50.63 217.21 49.49 217.8 48.31C218.07 47.77 218.53 46.95 218.35 46.33C218.15 45.66 217.27 45.9 216.8 46.07C214.99 46.73 213.24 47.63 211.76 48.87C210.33 50.06 209.12 51.5 208.06 53.02C206.87 54.74 206.04 56.75 205.77 58.83L205.76 58.84Z" fill="#8C9AAC" stroke="#8C9AAC" stroke-linecap="round" stroke-linejoin="round"/>
<path d="M236.55 86.07C235.73 86.36 235.98 90.37 236.06 91.07C236.26 92.89 236.86 94.63 237.57 96.3C238.32 98.07 239.23 99.76 240.07 101.48C240.78 102.94 242.23 105.04 242.05 106.72C241.79 109.2 227.81 114.83 225.86 114.26C223.77 113.65 222.78 111.06 221.9 109.3C220.42 106.32 218.99 103.04 218.53 99.72C218.45 99.14 217.97 96.18 218.49 95.81C224.46 91.56 236.47 86.1 236.56 86.07H236.55Z" fill="#8C9AAC" stroke="#8C9AAC" stroke-linecap="round" stroke-linejoin="round"/>
<path d="M244.99 44.98C246.28 44.85 247.62 45.17 248.7 45.89" stroke="white" stroke-linecap="round" stroke-linejoin="round"/>
<path d="M207.22 58.43C207.31 57.42 207.58 56.43 208.01 55.52" stroke="white" stroke-linecap="round" stroke-linejoin="round"/>
<path d="M216.96 35.59C213.93 40.7 211.87 46.38 210.92 52.25" stroke="#5E718B" stroke-linecap="round" stroke-linejoin="round"/>
<path d="M217.64 32.74C220.03 32.87 219.67 36.19 217.27 36.11C214.87 36.03 215.08 32.6 217.64 32.74Z" fill="#8C9AAC" stroke="#8C9AAC" stroke-linecap="round" stroke-linejoin="round"/>
<path d="M217.2 33.43C217.61 33.23 218.16 33.39 218.4 33.78" stroke="white" stroke-width="0.5" stroke-linecap="round" stroke-linejoin="round"/>
<path d="M244.21 90.16C246.42 95.91 250.52 100.91 255.58 104.39" stroke="#5E718B" stroke-linecap="round" stroke-linejoin="round"/>
<path d="M171.79 76.56L193.1 105.92" stroke="#5E718B" stroke-linecap="round" stroke-linejoin="round"/>
<path d="M192.92 98.49C193.73 99.15 194.01 100.39 193.04 101.44C193.27 100.68 194.3 100.31 194.96 100.74C195.62 101.17 195.7 102.26 195.1 102.78C195.57 102.07 196.8 102.32 197.19 103.07C197.58 103.82 197.33 104.77 196.87 105.48C196.09 106.68 194.73 107.48 193.3 107.58C189.95 107.81 185.72 105.57 184.67 102.27C184.53 101.84 184.44 101.37 184.59 100.94C184.82 100.27 185.56 99.92 186.25 99.81C186.94 99.7 187.67 99.73 188.34 99.52C189.12 99.27 189.75 98.68 190.48 98.3C191.39 97.82 192.3 97.99 192.91 98.49H192.92Z" fill="#8C9AAC" stroke="#8C9AAC" stroke-miterlimit="10"/>
<path d="M190.19 102.18C191.71 102.3 193.24 101.28 193.71 99.84" stroke="#5E718B" stroke-width="0.75" stroke-linecap="round" stroke-linejoin="round"/>
<path d="M192.93 104.33C194.4 104.25 195.78 103.3 196.39 101.96" stroke="#5E718B" stroke-width="0.75" stroke-linecap="round" stroke-linejoin="round"/>
<path d="M164.27 72.72L162.09 76.13" stroke="#8C9AAC" stroke-linecap="round" stroke-linejoin="round"/>
<path d="M170.76 62.56L168.58 65.98" stroke="#8C9AAC" stroke-linecap="round" stroke-linejoin="round"/>
<path d="M164.27 72.72L162.09 76.13" stroke="#8C9AAC" stroke-linecap="round" stroke-linejoin="round"/>
<path d="M170.76 62.56L168.58 65.98" stroke="#8C9AAC" stroke-linecap="round" stroke-linejoin="round"/>
<path d="M163.07 67.04L159.66 64.86" stroke="#8C9AAC" stroke-linecap="round" stroke-linejoin="round"/>
<path d="M173.24 73.54L169.81 71.35" stroke="#8C9AAC" stroke-linecap="round" stroke-linejoin="round"/>
<path d="M162.53 70.06L158.58 70.93" stroke="#8C9AAC" stroke-linecap="round" stroke-linejoin="round"/>
<path d="M174.31 67.47L170.35 68.34" stroke="#8C9AAC" stroke-linecap="round" stroke-linejoin="round"/>
<path d="M165.58 65.28L164.71 61.33" stroke="#8C9AAC" stroke-linecap="round" stroke-linejoin="round"/>
<path d="M168.18 77.07L167.31 73.1" stroke="#8C9AAC" stroke-linecap="round" stroke-linejoin="round"/>
</svg>
