<svg width="17" height="16" viewBox="0 0 17 16" fill="none" xmlns="http://www.w3.org/2000/svg">
<path d="M13.258 2.95803L10.0153 1.63203C9.03933 1.23203 7.96333 1.23203 6.986 1.63203L3.744 2.9587C2.988 3.2667 2.5 3.99336 2.5 4.80936L2.5 7.4947C2.5 10.7114 4.80133 13.6967 7.972 14.5934C8.14467 14.642 8.322 14.6667 8.5 14.6667C8.678 14.6667 8.85533 14.642 9.028 14.5934C12.1987 13.696 14.5 10.7107 14.5 7.4947V4.80936C14.5 3.99336 14.0127 3.26736 13.258 2.95803ZM8.66533 13.3107C8.55933 13.3407 8.442 13.3407 8.33467 13.3107C7.54067 13.086 6.81467 12.7014 6.18667 12.2034C6.54733 11.6794 7.15 11.3334 7.83333 11.3334H9.16667C9.85 11.3334 10.452 11.6794 10.8133 12.2034C10.1853 12.7014 9.45867 13.086 8.66533 13.3107ZM13.1667 7.4947C13.1667 8.8767 12.6413 10.2047 11.768 11.2634C11.1567 10.4967 10.2207 10 9.16667 10H7.83333C6.77867 10 5.84333 10.4967 5.232 11.2634C4.35867 10.2047 3.83333 8.8767 3.83333 7.4947L3.83333 4.80936C3.83333 4.53736 3.996 4.29536 4.248 4.1927L7.49067 2.86603C7.81667 2.7327 8.158 2.66603 8.50067 2.66603C8.84333 2.66603 9.18467 2.7327 9.51 2.86603L12.7527 4.1927C13.0047 4.29536 13.1667 4.53736 13.1667 4.80936V7.4947ZM8.5 4.00003C6.98 4.00003 5.83333 5.1467 5.83333 6.6667C5.83333 8.1867 6.98 9.33336 8.5 9.33336C10.02 9.33336 11.1667 8.1867 11.1667 6.6667C11.1667 5.1467 10.02 4.00003 8.5 4.00003ZM8.5 8.00003C7.71467 8.00003 7.16667 7.45203 7.16667 6.6667C7.16667 5.88136 7.71467 5.33336 8.5 5.33336C9.28533 5.33336 9.83333 5.88136 9.83333 6.6667C9.83333 7.45203 9.28533 8.00003 8.5 8.00003Z" fill="black"/>
</svg>
