<svg width="22" height="22" viewBox="0 0 22 22" fill="none" xmlns="http://www.w3.org/2000/svg">
<path d="M10.9997 1.83334C5.94517 1.83334 1.83301 5.9455 1.83301 11C1.83301 16.0545 5.94517 20.1667 10.9997 20.1667C16.0542 20.1667 20.1663 16.0545 20.1663 11C20.1663 5.9455 16.0542 1.83334 10.9997 1.83334ZM10.9997 18.3333C6.95626 18.3333 3.66634 15.0434 3.66634 11C3.66634 6.95659 6.95626 3.66667 10.9997 3.66667C15.0431 3.66667 18.333 6.95659 18.333 11C18.333 15.0434 15.0431 18.3333 10.9997 18.3333Z" fill="#00653E"/>
<path d="M9.16542 12.4548L7.70694 10.9988C7.3486 10.6411 6.76808 10.6418 6.41056 11.0003C6.05326 11.3586 6.05398 11.9387 6.41217 12.2961L7.8709 13.7517C8.58708 14.4663 9.74681 14.4657 10.4622 13.7503L14.6663 9.54617C15.0243 9.18824 15.0243 8.60793 14.6663 8.25C14.3084 7.89208 13.7281 7.89208 13.3702 8.25L9.16542 12.4548Z" fill="#00653E"/>
</svg>
