<svg width="22" height="22" viewBox="0 0 22 22" fill="none" xmlns="http://www.w3.org/2000/svg">
<path d="M14.6208 7.37909C14.2623 7.02067 13.6821 7.02067 13.3246 7.37909L10.9999 9.70375L8.67525 7.37909C8.31775 7.02159 7.7375 7.02159 7.37909 7.37909C7.02067 7.7375 7.02067 8.31775 7.37909 8.67525L9.70375 10.9999L7.37909 13.3246C7.02067 13.683 7.02067 14.2633 7.37909 14.6208C7.7375 14.9792 8.31775 14.9792 8.67525 14.6208L10.9999 12.2961L13.3246 14.6208C13.683 14.9792 14.2633 14.9792 14.6208 14.6208C14.9792 14.2623 14.9792 13.6821 14.6208 13.3246L12.2961 10.9999L14.6208 8.67525C14.9783 8.31775 14.9783 7.7375 14.6208 7.37909ZM10.9999 20.1666C16.0544 20.1666 20.1666 16.0544 20.1666 10.9999C20.1666 5.94542 16.0544 1.83325 10.9999 1.83325C5.94542 1.83325 1.83325 5.94542 1.83325 10.9999C1.83325 16.0544 5.94542 20.1666 10.9999 20.1666ZM10.9999 3.66659C15.0433 3.66659 18.3333 6.9565 18.3333 10.9999C18.3333 15.0433 15.0433 18.3333 10.9999 18.3333C6.9565 18.3333 3.66659 15.0433 3.66659 10.9999C3.66659 6.9565 6.9565 3.66659 10.9999 3.66659Z" fill="#B40000"/>
</svg>
